<?xml version="1.0" encoding="UTF-8"?>
<svg width="791px" height="335px" viewBox="0 0 791 335" version="1.1" xmlns="http://www.w3.org/2000/svg" xmlns:xlink="http://www.w3.org/1999/xlink">
    <!-- Generator: Sketch 47.1 (45422) - http://www.bohemiancoding.com/sketch -->
    <title>B0D_logo_white</title>
    <desc>Created with Sketch.</desc>
    <defs></defs>
    <g id="Page-1" stroke="none" stroke-width="1" fill="none" fill-rule="evenodd">
        <g id="B0D_logo_white" fill-rule="nonzero" fill="#FFFFFF">
            <path d="M84.4961691,169.199038 L0,169.199038 L17.7470356,145.721595 L17.7470356,23.4774426 L0,0 L80.9049822,0 C109.634478,0 133.502961,19.8794481 133.502961,45.0489586 C133.502961,60.27757 125.05311,72.333554 113.436911,80.3708767 C128.855543,88.4081994 140.262843,102.576213 140.262843,121.18896 C140.262843,150.586291 111.958187,169.199038 84.4961691,169.199038 M60.2028457,20.0933067 L60.2028457,76.7728822 C81.5387211,74.8716559 91.2560504,63.0271804 91.2560504,50.5481794 C91.2560504,37.6461614 80.6937359,23.8981094 60.2028457,20.0933067 M60.2028457,93.0613862 L60.2028457,138.10964 L95.9034688,153.124393 C97.8046855,147.413663 99.0721632,141.491426 99.0721632,135.783046 C99.0721632,115.68974 86.1861395,97.2892059 60.2028457,93.0613862" id="Fill-1"></path>
            <path d="M240.632997,174.909062 L228.169466,153.972072 L193.949914,174.697554 C169.022852,169.409841 152.125496,147.415308 152.125496,123.726357 L152.125496,97.4983643 L138.605733,83.9641709 L194.583653,50.5481794 L194.583653,118.861662 C194.583653,133.032731 207.25843,144.665698 223.522047,144.665698 L223.946887,144.665698 L223.946887,97.4983643 L210.427125,83.9641709 L266.402697,50.5481794 L266.402697,138.954969 L279.288721,151.854637 L240.632997,174.909062 Z" id="Fill-2"></path>
            <path d="M361.674774,100.038816 C356.182371,88.4058493 348.788751,80.7915436 337.381451,80.7915436 L337.381451,145.7223 L355.337386,169.199743 L277.178605,169.199743 L294.925641,145.7223 L294.925641,86.7137813 L282.03727,73.8117633 L320.695341,50.7596879 L333.158872,71.48752 L367.589671,50.9711964 C382.165665,54.9898577 391.458154,64.9307568 398.006789,78.4649502 L361.674774,100.038816 Z" id="Fill-3"></path>
            <path d="M433.500861,134.089803 C445.330653,145.299753 460.962878,153.125568 478.70522,156.721212 C467.29792,166.448252 453.989404,171.947473 438.782018,171.947473 C405.827596,171.947473 380.057896,145.511262 380.057896,112.729796 C380.057896,79.9455096 405.827596,53.5069482 438.782018,53.5069482 C462.650501,53.5069482 494.337445,74.8693058 494.337445,113.364321 L433.500861,134.089803 Z M413.646056,71.6966784 C412.587478,76.7728822 411.953739,81.6375775 411.953739,86.0792559 C411.953739,90.9439512 411.740145,96.020155 413.012318,100.673812 L453.989404,116.746107 C453.989404,79.3109841 418.502374,72.5427124 413.646056,71.6966784 L413.646056,71.6966784 Z" id="Fill-4"></path>
            <path d="M575.718905,174.697789 L561.77665,151.008838 L522.273593,174.697789 C501.362558,158.834652 489.955258,133.455983 489.955258,109.97854 C489.955258,80.1570181 508.333685,53.5092983 549.10422,53.5092983 C567.057807,53.5092983 585.858727,58.7970105 601.488605,67.6803672 L601.488605,138.743695 L614.374629,151.643363 L575.718905,174.697789 Z M559.030448,90.9439512 L521.219709,72.5450625 C519.318493,77.6212663 518.473507,82.4859616 518.473507,87.1391484 C518.473507,110.190049 537.274427,130.917881 559.030448,140.221905 L559.030448,90.9439512 Z" id="Fill-5"></path>
            <path d="M712.629973,174.909062 L700.166442,153.972072 L665.94689,174.697554 C641.019828,169.409841 624.122472,147.415308 624.122472,123.726357 L624.122472,97.4983643 L610.602709,83.9641709 L666.580629,50.5481794 L666.580629,118.861662 C666.580629,133.032731 679.255407,144.665698 695.519024,144.665698 L695.943864,144.665698 L695.943864,97.4983643 L682.421754,83.9641709 L738.399674,50.5481794 L738.399674,138.954969 L751.288045,151.854637 L712.629973,174.909062 Z" id="Fill-6"></path>
            <path d="M108.788554,212.259112 C85.9763015,188.993178 60.6267466,182.647923 51.1206635,182.436414 C46.2619988,194.490048 43.9382896,206.125365 43.9382896,217.758332 C43.9382896,265.977568 84.2863312,306.164182 141.951874,306.587199 C121.252085,324.56542 103.929889,331.545201 85.1289691,331.545201 C40.558349,331.545201 5.28256558,293.050655 5.28256558,244.194544 C5.28256558,195.338432 40.7695953,157.269254 85.5538089,157.269254 C109.633539,157.269254 130.969414,168.265345 148.078017,188.993178 L108.788554,212.259112 Z" id="Fill-7"></path>
            <path d="M220.351945,259.846172 C214.859541,248.213205 207.465921,240.598899 196.058621,240.598899 L196.058621,305.527306 L214.014556,329.007099 L135.855776,329.007099 L153.602811,305.527306 L153.602811,246.521137 L140.71444,233.619119 L179.372512,210.564694 L191.836043,231.294876 L226.266841,210.778552 C240.841896,214.797214 250.134386,224.738113 256.683021,238.269956 L220.351945,259.846172 Z" id="Fill-8"></path>
            <path d="M327.955172,334.50538 L314.012917,310.816428 L274.512208,334.50538 C253.598825,318.642243 242.191525,293.263574 242.191525,269.786131 C242.191525,239.963434 260.569953,213.315714 301.340487,213.315714 C319.294074,213.315714 338.094994,218.603426 353.724872,227.486783 L353.724872,298.551286 L366.610896,311.448604 L327.955172,334.50538 Z M311.266715,250.748017 L273.455976,232.349128 C271.55476,237.425332 270.709774,242.292377 270.709774,246.945564 C270.709774,269.99764 289.510694,290.725472 311.266715,300.029495 L311.266715,250.748017 Z" id="Fill-9"></path>
            <path d="M428.747819,241.022621 L428.747819,297.702197 L442.267582,311.029582 L402.978119,334.502324 C391.993312,318.430029 386.289662,306.376395 386.289662,286.07158 L386.289662,241.022621 L362.841323,241.022621 L362.841323,221.143173 L386.289662,221.143173 L386.289662,206.335229 L372.769899,192.589527 L428.747819,159.382694 L428.747819,221.143173 L452.196157,221.143173 L452.196157,241.022621 L428.747819,241.022621 Z" id="Fill-10"></path>
            <path d="M505.425528,333.447367 C485.145884,333.447367 465.713573,330.27474 447.968884,318.009597 L472.895947,298.548466 L528.451374,316.949705 C523.803955,291.573386 458.742445,287.973041 458.742445,251.384422 C458.742445,223.467652 483.878407,212.046193 508.382976,212.046193 C523.170217,212.046193 540.487718,216.278713 552.74235,226.214912 L526.761404,246.519727 L479.019742,230.872799 C484.512145,256.460626 553.164843,259.421745 553.164843,297.279415 C553.164843,324.56401 524.437694,333.447367 505.425528,333.447367" id="Fill-11"></path>
            <path d="M583.173552,233.7566 C583.173552,223.157674 588.799745,219.470376 594.015181,219.470376 C603.68322,219.470376 604.910795,229.300821 604.910795,233.7566 C604.910795,244.355525 599.282255,247.991121 594.015181,247.991121 C589.262139,247.991121 583.173552,244.818494 583.173552,233.7566 M601.073154,233.7566 C601.073154,229.044661 599.998145,222.694706 594.015181,222.694706 C588.032217,222.694706 587.011193,229.044661 587.011193,233.7566 C587.011193,238.468539 588.032217,244.769142 594.015181,244.769142 C599.998145,244.769142 601.073154,238.468539 601.073154,233.7566" id="Fill-12"></path>
            <path d="M643.376398,215.630557 C641.228727,214.70462 638.775923,213.071304 636.4217,213.071304 C633.048801,213.071304 631.565383,215.169939 631.565383,218.70213 L631.565383,221.773704 L640.362617,221.773704 L640.362617,224.998033 L631.565383,224.998033 L631.565383,247.429684 L627.727742,247.429684 L627.727742,224.998033 L620.927958,224.998033 L620.927958,221.773704 L627.727742,221.773704 L627.727742,219.162749 C627.727742,212.657688 632.126359,209.842275 636.168205,209.842275 C638.672647,209.842275 641.127798,210.71416 643.376398,211.738801 L643.376398,215.630557 Z" id="Fill-13"></path>
            <path d="M584.401128,259.883069 L593.759338,259.883069 C600.86895,259.883069 605.624338,263.929931 605.624338,278.317209 C605.624338,292.502378 601.225721,296.753699 593.198362,296.753699 L584.401128,296.753699 L584.401128,259.883069 Z M588.236421,293.527019 L592.942519,293.527019 C598.261231,293.371913 601.789045,292.04176 601.789045,278.317209 C601.789045,264.186091 597.749546,263.109748 592.839243,263.109748 L588.236421,263.109748 L588.236421,293.527019 Z" id="Fill-14"></path>
            <path d="M624.300858,284.054024 C624.505062,291.581376 627.880309,294.091277 632.077068,294.091277 C635.095543,294.091277 638.111671,292.707071 640.616113,291.17011 L642.252098,294.601247 C638.825214,296.138209 635.550896,297.315606 631.769588,297.315606 C623.685896,297.315606 620.465564,290.352277 620.465564,283.231491 C620.465564,276.066053 623.789172,268.794861 631.976139,268.794861 C641.07616,268.794861 642.510288,278.984871 642.510288,281.95069 L642.510288,284.054024 L624.300858,284.054024 Z M638.672647,280.827344 C638.522427,276.322214 635.964,272.019191 631.668659,272.019191 C627.37097,272.019191 625.272591,275.295222 624.251567,280.827344 L638.672647,280.827344 Z" id="Fill-15"></path>
            <path d="M675.401335,275.091939 C673.253665,273.554978 670.852499,272.020366 668.089866,272.020366 C665.787282,272.020366 663.639611,273.710084 663.639611,276.168282 C663.639611,278.828589 666.813,280.161093 668.906685,280.929574 C673.202027,282.518237 677.70392,284.309009 677.70392,289.737727 C677.70392,294.242858 673.610436,297.316781 669.36908,297.316781 C665.223958,297.316781 661.132822,295.267499 658.116694,292.55314 L660.212727,289.481567 C662.360398,291.787009 665.888211,294.090102 669.11089,294.090102 C671.669318,294.090102 673.870973,292.656544 673.870973,289.890483 C673.870973,286.306589 671.002718,285.33365 668.193142,284.257307 C664.303864,282.772048 659.80197,280.929574 659.80197,276.013176 C659.80197,272.020366 663.487045,268.793686 668.242433,268.793686 C671.669318,268.793686 674.377964,270.022786 677.093653,271.968664 L675.401335,275.091939 Z" id="Fill-16"></path>
            <path d="M704.820902,272.583684 L697.047039,272.583684 L697.047039,269.359354 L708.658543,269.359354 L708.658543,296.752054 L704.820902,296.752054 L704.820902,272.583684 Z M709.834481,262.393674 C709.834481,264.236148 708.400353,265.620354 706.611801,265.620354 C704.820902,265.620354 703.391469,264.236148 703.391469,262.393674 C703.391469,260.5512 704.820902,259.166995 706.611801,259.166995 C708.400353,259.166995 709.834481,260.5512 709.834481,262.393674 L709.834481,262.393674 Z" id="Fill-17"></path>
            <path d="M754.130481,268.794626 C753.210386,272.12236 752.954543,275.553498 752.954543,279.033987 L752.954543,294.091042 C752.954543,302.638335 746.718083,305.098884 742.777166,305.098884 C739.554487,305.098884 736.230878,303.25641 734.080861,300.901615 L736.794202,298.544471 C738.331605,300.542051 740.683481,301.874554 743.237214,301.874554 C747.279059,301.874554 749.119249,298.187256 749.119249,294.2955 L749.119249,292.145164 C747.023217,293.524669 745.281608,294.448256 742.572961,294.448256 C735.874107,294.448256 732.653774,288.044249 732.653774,282.107911 C732.653774,275.60285 735.514988,268.794626 743.084647,268.794626 C745.692365,268.794626 747.689816,269.664161 749.783501,271.198773 L750.499392,268.794626 L754.130481,268.794626 Z M749.119249,275.398392 C747.894021,273.553567 745.48816,272.018956 743.133938,272.018956 C738.071068,272.018956 736.486721,277.447674 736.486721,281.647292 C736.486721,286.970256 739.042801,291.221577 742.777166,291.221577 C745.129042,291.221577 747.940964,289.635263 749.119249,287.637683 L749.119249,275.398392 Z" id="Fill-18"></path>
            <path d="M774.90538,296.752289 L771.070086,296.752289 L771.070086,282.976036 C771.070086,278.369851 770.863534,273.709614 769.844858,269.357239 L773.525237,269.357239 L774.393694,274.377041 C776.33716,271.148011 779.86732,268.795566 783.702614,268.795566 C788.051941,268.795566 790.302887,272.788377 790.302887,277.446264 L790.302887,296.752289 L786.465246,296.752289 L786.465246,278.576659 C786.465246,275.963354 786.465246,272.022246 783.087653,272.022246 C779.456564,272.022246 774.90538,275.704844 774.90538,285.33553 L774.90538,296.752289 Z" id="Fill-19"></path>
        </g>
    </g>
</svg>