<?xml version="1.0" encoding="UTF-8"?>
<svg width="26px" height="55px" viewBox="0 0 26 55" version="1.1" xmlns="http://www.w3.org/2000/svg" xmlns:xlink="http://www.w3.org/1999/xlink">
    <!-- Generator: Sketch 43.2 (39069) - http://www.bohemiancoding.com/sketch -->
    <title>BC_black</title>
    <desc>Created with Sketch.</desc>
    <defs></defs>
    <g id="web--v2" stroke="none" stroke-width="1" fill="none" fill-rule="evenodd">
        <g id="B0D_mobile_2" transform="translate(-30.000000, -28.000000)">
            <g id="BC_black" transform="translate(15.000000, 28.000000)">
                <rect id="Rectangle" x="0" y="0" width="55" height="55" rx="4"></rect>
                <path d="M29.2236418,28.0345841 L15,28.0345841 L17.9874429,24.1446235 L17.9874429,3.88996062 L15,-1.59872116e-14 L28.6191203,-1.59872116e-14 C33.4552928,-1.59872116e-14 37.4731882,3.2938115 37.4731882,7.46412965 C37.4731882,9.98734735 36.0507845,11.9848947 34.0953745,13.3165929 C36.6908661,14.6482912 38.6111111,16.995896 38.6111111,20.0798288 C38.6111111,24.9506513 33.8464538,28.0345841 29.2236418,28.0345841 M25.1342312,3.32924558 L25.1342312,12.7204438 C28.7258005,12.405431 30.3615648,10.4429283 30.3615648,8.3752916 C30.3615648,6.23756549 28.5835602,3.95966062 25.1342312,3.32924558 M25.1342312,15.4192743 L25.1342312,22.883404 L31.1438868,25.3711876 C31.4639277,24.424981 31.6772882,23.4437297 31.6772882,22.4979124 C31.6772882,19.1686668 29.5081226,16.1197788 25.1342312,15.4192743" id="Fill-3" fill="#000000"></path>
                <path d="M33.618002,34.5973103 C29.735074,30.7633943 25.4202655,29.7177808 23.8022124,29.6829271 C22.9752074,31.6695926 22.5796833,33.5865506 22.5796833,35.5035086 C22.5796833,43.4497836 29.4474201,50.0716149 39.2628102,50.1413225 C35.7394495,53.1038939 32.7909971,54.2540687 29.5908475,54.2540687 C22.0043755,54.2540687 16,47.9106804 16,39.8598441 C16,31.8090077 22.0403323,25.5357143 29.6631605,25.5357143 C33.761829,25.5357143 37.3934594,27.3477237 40.3055556,30.7633943 L33.618002,34.5973103 Z" id="Fill-9" fill="#000000"></path>
            </g>
        </g>
    </g>
</svg>