<?xml version="1.0" encoding="UTF-8"?>
<svg width="793px" height="340px" viewBox="0 0 793 340" version="1.1" xmlns="http://www.w3.org/2000/svg" xmlns:xlink="http://www.w3.org/1999/xlink">
    <!-- Generator: Sketch 47.1 (45422) - http://www.bohemiancoding.com/sketch -->
    <title>BC_logo_black</title>
    <desc>Created with Sketch.</desc>
    <defs></defs>
    <g id="Page-1" stroke="none" stroke-width="1" fill="none" fill-rule="evenodd">
        <g id="B0D_logo_black" fill-rule="nonzero" fill="#000000">
            <path d="M84.4961691,169.199038 L0,169.199038 L17.7470356,145.721595 L17.7470356,23.4774426 L0,0 L80.9049822,0 C109.634478,0 133.502961,19.8794481 133.502961,45.0489586 C133.502961,60.27757 125.05311,72.333554 113.436911,80.3708767 C128.855543,88.4081994 140.262843,102.576213 140.262843,121.18896 C140.262843,150.586291 111.958187,169.199038 84.4961691,169.199038 M60.2028457,20.0933067 L60.2028457,76.7728822 C81.5387211,74.8716559 91.2560504,63.0271804 91.2560504,50.5481794 C91.2560504,37.6461614 80.6937359,23.8981094 60.2028457,20.0933067 M60.2028457,93.0613862 L60.2028457,138.10964 L95.9034688,153.124393 C97.8046855,147.413663 99.0721632,141.491426 99.0721632,135.783046 C99.0721632,115.68974 86.1861395,97.2892059 60.2028457,93.0613862" id="Fill-1"></path>
            <path d="M108.788554,212.259112 C85.9763015,188.993178 60.6267466,182.647923 51.1206635,182.436414 C46.2619988,194.490048 43.9382896,206.125365 43.9382896,217.758332 C43.9382896,265.977568 84.2863312,306.164182 141.951874,306.587199 C121.252085,324.56542 103.929889,331.545201 85.1289691,331.545201 C40.558349,331.545201 5.28256558,293.050655 5.28256558,244.194544 C5.28256558,195.338432 40.7695953,157.269254 85.5538089,157.269254 C109.633539,157.269254 130.969414,168.265345 148.078017,188.993178 L108.788554,212.259112 Z" id="Fill-7"></path>
        </g>
    </g>
</svg>