<?xml version="1.0" encoding="UTF-8" standalone="no"?>
<svg width="16px" height="16px" viewBox="0 0 16 16" version="1.1" xmlns="http://www.w3.org/2000/svg" xmlns:xlink="http://www.w3.org/1999/xlink">
    <!-- Generator: Sketch 42 (36781) - http://www.bohemiancoding.com/sketch -->
    <title>favicon</title>
    <desc>Created with Sketch.</desc>
    <defs></defs>
    <g id="web--var" stroke="none" stroke-width="1" fill="none" fill-rule="evenodd">
        <g id="favicon" fill="#000000">
            <path d="M8.46462921,8.15625 L4.8125,8.15625 L5.57956989,7.14159835 L5.57956989,1.85840165 L4.8125,0.84375 L8.30940941,0.84375 C9.55116784,0.84375 10.5828215,1.70290299 10.5828215,2.79068268 C10.5828215,3.44883511 10.2175985,3.96987244 9.71551822,4.31723067 C10.3819489,4.66458889 10.875,5.27693472 10.875,6.08134323 C10.875,7.35184148 9.65160418,8.15625 8.46462921,8.15625 M7.4146129,1.71214556 L7.4146129,4.161732 C8.33680114,4.07956451 8.75680767,3.56766818 8.75680767,3.02834884 C8.75680767,2.47074748 8.30027883,1.8765821 7.4146129,1.71214556 M7.4146129,4.86569102 L7.4146129,6.8126237 L8.95768035,7.46153355 C9.03985554,7.21472639 9.094639,6.95877823 9.094639,6.71207264 C9.094639,5.84367708 8.53767383,5.04840957 7.4146129,4.86569102" id="Fill-3"></path>
            <path d="M9.51628994,10.0326099 C8.5278074,9.02718388 7.42938046,8.75297679 7.01747035,8.74383656 C6.80693852,9.26483002 6.70624938,9.76754302 6.70624938,10.270256 C6.70624938,12.3541283 8.45457894,14.0906716 10.9532968,14.1089521 C10.0563499,14.8858722 9.30575811,15.1875 8.49109146,15.1875 C6.55979246,15.1875 5.03125,13.523977 5.03125,11.412684 C5.03125,9.30139097 6.56894602,7.65625 8.50950028,7.65625 C9.55290417,7.65625 10.4774135,8.13144073 11.21875,9.02718388 L9.51628994,10.0326099 Z" id="Fill-9"></path>
        </g>
    </g>
</svg>